<svg xmlns="http://www.w3.org/2000/svg" xmlns:xlink="http://www.w3.org/1999/xlink" width="1080" zoomAndPan="magnify" viewBox="0 0 810 809.999993" height="1080" preserveAspectRatio="xMidYMid meet" version="1.0"><defs><g/><clipPath id="21a3093a6c"><path d="M 348.019531 286 L 533 286 L 533 520.277344 L 348.019531 520.277344 Z M 348.019531 286 " clip-rule="nonzero"/></clipPath><clipPath id="92c5664d52"><path d="M 377 226 L 561.019531 226 L 561.019531 461 L 377 461 Z M 377 226 " clip-rule="nonzero"/></clipPath><clipPath id="2ccdba3fa5"><path d="M 58.445312 286.597656 L 222.695312 286.597656 L 222.695312 457.585938 L 58.445312 457.585938 Z M 58.445312 286.597656 " clip-rule="nonzero"/></clipPath><clipPath id="c95e2187ab"><path d="M 202.636719 286.597656 L 366.886719 286.597656 L 366.886719 457.585938 L 202.636719 457.585938 Z M 202.636719 286.597656 " clip-rule="nonzero"/></clipPath><clipPath id="fb282ec98b"><path d="M 569 273.4375 L 745.449219 273.4375 L 745.449219 377 L 569 377 Z M 569 273.4375 " clip-rule="nonzero"/></clipPath><clipPath id="9f2e7fdbc5"><path d="M 547.449219 337 L 714 337 L 714 457.9375 L 547.449219 457.9375 Z M 547.449219 337 " clip-rule="nonzero"/></clipPath></defs><g clip-path="url(#21a3093a6c)"><path fill="#ffffff" d="M 502.007812 462.023438 C 502.007812 432.902344 502.007812 404.226562 502.007812 375.546875 C 501.640625 375.40625 501.269531 375.265625 500.902344 375.121094 C 485.652344 394.265625 470.398438 413.40625 454.59375 433.246094 C 448.972656 426.242188 443.582031 419.535156 437.714844 412.226562 C 408.953125 448.375 380.417969 484.222656 351.644531 520.375 C 350.332031 519.324219 349.28125 518.484375 348.035156 517.484375 C 409.277344 440.488281 470.289062 363.773438 532.078125 286.085938 C 532.078125 345.46875 532.078125 403.605469 532.078125 462.023438 C 522.207031 462.023438 512.589844 462.023438 502.007812 462.023438 Z M 502.007812 462.023438 " fill-opacity="1" fill-rule="nonzero"/></g><g clip-path="url(#92c5664d52)"><path fill="#ffffff" d="M 377.121094 286.890625 C 399.472656 314.972656 421.125 342.183594 443.257812 370 C 444.9375 367.980469 446.417969 366.257812 447.824219 364.488281 C 483.320312 319.839844 518.804688 275.164062 554.359375 230.550781 C 555.925781 228.589844 557.410156 224.054688 561.328125 229.21875 C 516.710938 285.316406 472.058594 341.457031 426.894531 398.246094 C 420.601562 390.449219 414.609375 383.015625 407.914062 374.730469 C 407.660156 376.910156 407.382812 378.15625 407.382812 379.414062 C 407.359375 392.355469 407.519531 405.304688 407.25 418.242188 C 407.195312 420.902344 406.195312 424 404.582031 426.09375 C 395.847656 437.503906 386.785156 448.660156 377.117188 460.808594 C 377.121094 402.519531 377.121094 345.335938 377.121094 286.890625 Z M 377.121094 286.890625 " fill-opacity="1" fill-rule="nonzero"/></g><g clip-path="url(#2ccdba3fa5)"><path fill="#ffffff" d="M 223 457.765625 L 144.03125 457.765625 C 96.761719 457.765625 58.445312 419.449219 58.445312 372.179688 C 58.445312 348.550781 68.023438 327.148438 83.515625 311.664062 C 99.003906 296.179688 120.390625 286.597656 144.03125 286.597656 L 216.667969 286.597656 L 190.726562 312.535156 L 151.027344 312.535156 C 134.554688 312.535156 119.644531 319.210938 108.851562 330.007812 C 98.058594 340.800781 91.382812 355.707031 91.382812 372.179688 C 91.382812 405.125 118.085938 431.824219 151.027344 431.824219 L 197.058594 431.824219 L 223 457.765625 " fill-opacity="1" fill-rule="nonzero"/></g><g clip-path="url(#c95e2187ab)"><path fill="#ffffff" d="M 367.191406 457.765625 L 288.222656 457.765625 C 240.953125 457.765625 202.636719 419.449219 202.636719 372.179688 C 202.636719 348.550781 212.21875 327.148438 227.707031 311.664062 C 243.195312 296.179688 264.585938 286.597656 288.222656 286.597656 L 360.859375 286.597656 L 334.917969 312.535156 L 295.21875 312.535156 C 278.746094 312.535156 263.839844 319.210938 253.042969 330.007812 C 242.25 340.800781 235.574219 355.707031 235.574219 372.179688 C 235.574219 405.125 262.277344 431.824219 295.21875 431.824219 L 341.253906 431.824219 L 367.191406 457.765625 " fill-opacity="1" fill-rule="nonzero"/></g><g clip-path="url(#fb282ec98b)"><path fill="#ffffff" d="M 571.472656 376.859375 C 571.472656 376.859375 585.707031 345.253906 619.761719 331.386719 C 619.761719 331.386719 622.535156 317.480469 626.695312 316.09375 L 626.695312 336.242188 C 626.695312 336.242188 629.464844 318.175781 635.011719 309.160156 L 635.011719 334.855469 C 635.011719 334.855469 637.785156 315.402344 643.332031 305.695312 L 643.332031 326.535156 C 643.332031 326.535156 646.105469 308.46875 676.652344 307.773438 C 676.652344 307.773438 676.652344 300.148438 691.945312 303.617188 L 745.085938 303.984375 C 745.085938 303.984375 696.472656 276.902344 627.019531 295.664062 C 627.019531 295.664062 624.246094 274.824219 581.875 273.4375 C 581.875 273.4375 600.632812 288.730469 589.5 303.984375 C 589.5 303.941406 561.035156 337.996094 571.472656 376.859375 Z M 571.472656 376.859375 " fill-opacity="1" fill-rule="nonzero"/></g><g clip-path="url(#9f2e7fdbc5)"><path fill="#ffffff" d="M 650.265625 359.855469 C 619.71875 360.546875 639.171875 337.628906 639.171875 337.628906 C 594.027344 341.789062 575.960938 381.386719 575.960938 381.386719 C 580.8125 403.613281 641.253906 395.292969 641.253906 395.292969 C 670.410156 402.921875 640.558594 423.066406 640.558594 423.066406 L 556.507812 423.066406 L 547.496094 457.078125 L 661.398438 457.078125 C 692.636719 457.773438 716.25 416.785156 713.476562 382.773438 C 710.703125 348.761719 650.265625 359.855469 650.265625 359.855469 Z M 650.265625 359.855469 " fill-opacity="1" fill-rule="nonzero"/></g><path fill="#ffffff" d="M 668.332031 320.988281 C 668.332031 320.988281 691.25 320.296875 713.476562 325.148438 L 723.878906 320.988281 C 723.917969 320.988281 701 309.160156 668.332031 320.988281 Z M 668.332031 320.988281 " fill-opacity="1" fill-rule="nonzero"/><g fill="#ffffff" fill-opacity="1"><g transform="translate(401.318274, 499.679755)"><g><path d="M 18.25 -8.1875 L 6.375 -8.1875 C 6.507812 -6.582031 6.96875 -5.410156 7.75 -4.671875 C 8.53125 -3.941406 9.597656 -3.578125 10.953125 -3.578125 C 12.015625 -3.578125 12.875 -3.773438 13.53125 -4.171875 C 14.1875 -4.566406 14.71875 -5.171875 15.125 -5.984375 L 15.46875 -5.984375 L 18.5625 -4 C 17.957031 -2.707031 17.046875 -1.65625 15.828125 -0.84375 C 14.609375 -0.0390625 12.984375 0.359375 10.953125 0.359375 C 9.046875 0.359375 7.394531 -0.00390625 6 -0.734375 C 4.613281 -1.460938 3.539062 -2.539062 2.78125 -3.96875 C 2.03125 -5.40625 1.65625 -7.160156 1.65625 -9.234375 C 1.65625 -11.328125 2.050781 -13.09375 2.84375 -14.53125 C 3.632812 -15.976562 4.707031 -17.054688 6.0625 -17.765625 C 7.414062 -18.472656 8.9375 -18.828125 10.625 -18.828125 C 13.226562 -18.828125 15.222656 -18.132812 16.609375 -16.75 C 18.003906 -15.363281 18.703125 -13.332031 18.703125 -10.65625 C 18.703125 -9.675781 18.671875 -8.921875 18.609375 -8.390625 Z M 14.265625 -11.1875 C 14.222656 -12.59375 13.894531 -13.613281 13.28125 -14.25 C 12.675781 -14.894531 11.789062 -15.21875 10.625 -15.21875 C 8.269531 -15.21875 6.890625 -13.875 6.484375 -11.1875 Z M 14.265625 -11.1875 "/></g></g></g><g fill="#ffffff" fill-opacity="1"><g transform="translate(425.337156, 499.679755)"><g><path d="M 8.015625 -24.484375 L 8.015625 -4.046875 L 19.03125 -4.046875 L 19.03125 0 L 3.1875 0 L 3.1875 -24.484375 Z M 8.015625 -24.484375 "/></g></g></g><g fill="#ffffff" fill-opacity="1"><g transform="translate(449.104897, 499.679755)"><g><path d="M 18.25 -8.1875 L 6.375 -8.1875 C 6.507812 -6.582031 6.96875 -5.410156 7.75 -4.671875 C 8.53125 -3.941406 9.597656 -3.578125 10.953125 -3.578125 C 12.015625 -3.578125 12.875 -3.773438 13.53125 -4.171875 C 14.1875 -4.566406 14.71875 -5.171875 15.125 -5.984375 L 15.46875 -5.984375 L 18.5625 -4 C 17.957031 -2.707031 17.046875 -1.65625 15.828125 -0.84375 C 14.609375 -0.0390625 12.984375 0.359375 10.953125 0.359375 C 9.046875 0.359375 7.394531 -0.00390625 6 -0.734375 C 4.613281 -1.460938 3.539062 -2.539062 2.78125 -3.96875 C 2.03125 -5.40625 1.65625 -7.160156 1.65625 -9.234375 C 1.65625 -11.328125 2.050781 -13.09375 2.84375 -14.53125 C 3.632812 -15.976562 4.707031 -17.054688 6.0625 -17.765625 C 7.414062 -18.472656 8.9375 -18.828125 10.625 -18.828125 C 13.226562 -18.828125 15.222656 -18.132812 16.609375 -16.75 C 18.003906 -15.363281 18.703125 -13.332031 18.703125 -10.65625 C 18.703125 -9.675781 18.671875 -8.921875 18.609375 -8.390625 Z M 14.265625 -11.1875 C 14.222656 -12.59375 13.894531 -13.613281 13.28125 -14.25 C 12.675781 -14.894531 11.789062 -15.21875 10.625 -15.21875 C 8.269531 -15.21875 6.890625 -13.875 6.484375 -11.1875 Z M 14.265625 -11.1875 "/></g></g></g><g fill="#ffffff" fill-opacity="1"><g transform="translate(473.123779, 499.679755)"><g><path d="M 7.203125 0.359375 C 6.015625 0.359375 4.984375 0.140625 4.109375 -0.296875 C 3.242188 -0.734375 2.578125 -1.375 2.109375 -2.21875 C 1.640625 -3.0625 1.40625 -4.078125 1.40625 -5.265625 C 1.40625 -6.359375 1.640625 -7.273438 2.109375 -8.015625 C 2.578125 -8.753906 3.300781 -9.359375 4.28125 -9.828125 C 5.269531 -10.304688 6.554688 -10.675781 8.140625 -10.9375 C 9.242188 -11.113281 10.082031 -11.304688 10.65625 -11.515625 C 11.226562 -11.734375 11.613281 -11.972656 11.8125 -12.234375 C 12.019531 -12.503906 12.125 -12.847656 12.125 -13.265625 C 12.125 -13.859375 11.914062 -14.3125 11.5 -14.625 C 11.09375 -14.9375 10.40625 -15.09375 9.4375 -15.09375 C 8.414062 -15.09375 7.441406 -14.863281 6.515625 -14.40625 C 5.585938 -13.945312 4.785156 -13.34375 4.109375 -12.59375 L 3.765625 -12.59375 L 1.828125 -15.53125 C 2.765625 -16.5625 3.90625 -17.367188 5.25 -17.953125 C 6.601562 -18.535156 8.078125 -18.828125 9.671875 -18.828125 C 12.117188 -18.828125 13.890625 -18.304688 14.984375 -17.265625 C 16.078125 -16.222656 16.625 -14.75 16.625 -12.84375 L 16.625 -4.828125 C 16.625 -3.992188 16.988281 -3.578125 17.71875 -3.578125 C 18 -3.578125 18.269531 -3.628906 18.53125 -3.734375 L 18.765625 -3.671875 L 19.109375 -0.4375 C 18.847656 -0.269531 18.488281 -0.128906 18.03125 -0.015625 C 17.570312 0.0859375 17.070312 0.140625 16.53125 0.140625 C 15.425781 0.140625 14.5625 -0.0703125 13.9375 -0.5 C 13.320312 -0.925781 12.878906 -1.59375 12.609375 -2.5 L 12.265625 -2.53125 C 11.359375 -0.601562 9.671875 0.359375 7.203125 0.359375 Z M 8.671875 -3.109375 C 9.742188 -3.109375 10.597656 -3.46875 11.234375 -4.1875 C 11.878906 -4.914062 12.203125 -5.921875 12.203125 -7.203125 L 12.203125 -9.078125 L 11.890625 -9.140625 C 11.609375 -8.921875 11.238281 -8.734375 10.78125 -8.578125 C 10.332031 -8.429688 9.6875 -8.285156 8.84375 -8.140625 C 7.832031 -7.972656 7.109375 -7.6875 6.671875 -7.28125 C 6.234375 -6.875 6.015625 -6.296875 6.015625 -5.546875 C 6.015625 -4.753906 6.25 -4.148438 6.71875 -3.734375 C 7.1875 -3.316406 7.835938 -3.109375 8.671875 -3.109375 Z M 8.671875 -3.109375 "/></g></g></g><g fill="#ffffff" fill-opacity="1"><g transform="translate(496.539923, 499.679755)"><g><path d="M 2.65625 0 L 2.65625 -18.46875 L 7.171875 -18.46875 L 7.171875 -15.71875 L 7.515625 -15.65625 C 7.960938 -16.6875 8.546875 -17.441406 9.265625 -17.921875 C 9.992188 -18.398438 10.878906 -18.640625 11.921875 -18.640625 C 12.972656 -18.640625 13.769531 -18.460938 14.3125 -18.109375 L 13.53125 -14.09375 L 13.171875 -14.03125 C 12.878906 -14.15625 12.59375 -14.242188 12.3125 -14.296875 C 12.03125 -14.359375 11.6875 -14.390625 11.28125 -14.390625 C 9.988281 -14.390625 9 -13.929688 8.3125 -13.015625 C 7.632812 -12.109375 7.296875 -10.648438 7.296875 -8.640625 L 7.296875 0 Z M 2.65625 0 "/></g></g></g><g fill="#ffffff" fill-opacity="1"><g transform="translate(514.966741, 499.679755)"><g><path d="M 2.65625 0 L 2.65625 -18.46875 L 7.125 -18.46875 L 7.125 -15.765625 L 7.46875 -15.671875 C 8.613281 -17.773438 10.476562 -18.828125 13.0625 -18.828125 C 15.195312 -18.828125 16.765625 -18.242188 17.765625 -17.078125 C 18.765625 -15.921875 19.265625 -14.226562 19.265625 -12 L 19.265625 0 L 14.625 0 L 14.625 -11.4375 C 14.625 -12.664062 14.375 -13.550781 13.875 -14.09375 C 13.382812 -14.632812 12.597656 -14.90625 11.515625 -14.90625 C 10.191406 -14.90625 9.15625 -14.472656 8.40625 -13.609375 C 7.664062 -12.753906 7.296875 -11.40625 7.296875 -9.5625 L 7.296875 0 Z M 2.65625 0 "/></g></g></g><g fill="#ffffff" fill-opacity="1"><g transform="translate(540.542694, 499.679755)"><g><path d="M 4.96875 -20.6875 C 4.132812 -20.6875 3.453125 -20.9375 2.921875 -21.4375 C 2.398438 -21.945312 2.140625 -22.601562 2.140625 -23.40625 C 2.140625 -24.195312 2.398438 -24.847656 2.921875 -25.359375 C 3.453125 -25.867188 4.132812 -26.125 4.96875 -26.125 C 5.53125 -26.125 6.03125 -26.003906 6.46875 -25.765625 C 6.90625 -25.535156 7.242188 -25.21875 7.484375 -24.8125 C 7.722656 -24.40625 7.84375 -23.9375 7.84375 -23.40625 C 7.84375 -22.882812 7.722656 -22.414062 7.484375 -22 C 7.242188 -21.59375 6.90625 -21.269531 6.46875 -21.03125 C 6.03125 -20.800781 5.53125 -20.6875 4.96875 -20.6875 Z M 2.65625 0 L 2.65625 -18.46875 L 7.296875 -18.46875 L 7.296875 0 Z M 2.65625 0 "/></g></g></g><g fill="#ffffff" fill-opacity="1"><g transform="translate(554.432239, 499.679755)"><g><path d="M 2.65625 0 L 2.65625 -18.46875 L 7.125 -18.46875 L 7.125 -15.765625 L 7.46875 -15.671875 C 8.613281 -17.773438 10.476562 -18.828125 13.0625 -18.828125 C 15.195312 -18.828125 16.765625 -18.242188 17.765625 -17.078125 C 18.765625 -15.921875 19.265625 -14.226562 19.265625 -12 L 19.265625 0 L 14.625 0 L 14.625 -11.4375 C 14.625 -12.664062 14.375 -13.550781 13.875 -14.09375 C 13.382812 -14.632812 12.597656 -14.90625 11.515625 -14.90625 C 10.191406 -14.90625 9.15625 -14.472656 8.40625 -13.609375 C 7.664062 -12.753906 7.296875 -11.40625 7.296875 -9.5625 L 7.296875 0 Z M 2.65625 0 "/></g></g></g><g fill="#ffffff" fill-opacity="1"><g transform="translate(580.008192, 499.679755)"><g><path d="M 9.578125 7.84375 C 6.523438 7.84375 4.273438 7.394531 2.828125 6.5 C 1.378906 5.601562 0.65625 4.359375 0.65625 2.765625 C 0.65625 1.796875 0.960938 1 1.578125 0.375 C 2.203125 -0.238281 3.09375 -0.65625 4.25 -0.875 L 4.25 -1.21875 C 3.625 -1.601562 3.175781 -2.023438 2.90625 -2.484375 C 2.632812 -2.953125 2.5 -3.492188 2.5 -4.109375 C 2.5 -5.585938 3.460938 -6.582031 5.390625 -7.09375 L 5.390625 -7.453125 C 4.398438 -8.023438 3.648438 -8.726562 3.140625 -9.5625 C 2.640625 -10.40625 2.390625 -11.425781 2.390625 -12.625 C 2.390625 -13.851562 2.671875 -14.929688 3.234375 -15.859375 C 3.804688 -16.796875 4.632812 -17.523438 5.71875 -18.046875 C 6.8125 -18.566406 8.113281 -18.828125 9.625 -18.828125 C 11.164062 -18.828125 12.394531 -18.554688 13.3125 -18.015625 C 13.882812 -18.847656 14.210938 -19.804688 14.296875 -20.890625 L 14.65625 -21.09375 L 17.984375 -20.28125 C 17.878906 -19.394531 17.617188 -18.65625 17.203125 -18.0625 C 16.796875 -17.46875 16.160156 -16.9375 15.296875 -16.46875 L 15.296875 -16.09375 C 16.328125 -15.175781 16.84375 -13.898438 16.84375 -12.265625 C 16.84375 -11.117188 16.554688 -10.09375 15.984375 -9.1875 C 15.421875 -8.289062 14.59375 -7.578125 13.5 -7.046875 C 12.414062 -6.523438 11.125 -6.265625 9.625 -6.265625 L 8.921875 -6.28125 C 8.472656 -6.300781 8.160156 -6.3125 7.984375 -6.3125 C 7.566406 -6.3125 7.234375 -6.195312 6.984375 -5.96875 C 6.742188 -5.738281 6.625 -5.445312 6.625 -5.09375 C 6.625 -4.695312 6.78125 -4.390625 7.09375 -4.171875 C 7.40625 -3.960938 7.863281 -3.84375 8.46875 -3.8125 L 12.609375 -3.671875 C 16.691406 -3.546875 18.734375 -1.785156 18.734375 1.609375 C 18.734375 2.804688 18.425781 3.867188 17.8125 4.796875 C 17.207031 5.734375 16.222656 6.472656 14.859375 7.015625 C 13.503906 7.566406 11.742188 7.84375 9.578125 7.84375 Z M 9.625 -9.515625 C 10.519531 -9.515625 11.21875 -9.773438 11.71875 -10.296875 C 12.21875 -10.828125 12.46875 -11.578125 12.46875 -12.546875 C 12.46875 -13.515625 12.21875 -14.257812 11.71875 -14.78125 C 11.21875 -15.300781 10.519531 -15.5625 9.625 -15.5625 C 8.71875 -15.5625 8.019531 -15.300781 7.53125 -14.78125 C 7.039062 -14.257812 6.796875 -13.515625 6.796875 -12.546875 C 6.796875 -11.554688 7.039062 -10.800781 7.53125 -10.28125 C 8.019531 -9.769531 8.71875 -9.515625 9.625 -9.515625 Z M 9.578125 4.46875 C 11.160156 4.46875 12.3125 4.242188 13.03125 3.796875 C 13.757812 3.347656 14.125 2.769531 14.125 2.0625 C 14.125 1.476562 13.9375 1.050781 13.5625 0.78125 C 13.195312 0.507812 12.613281 0.359375 11.8125 0.328125 L 8.15625 0.171875 C 8.03125 0.171875 7.914062 0.164062 7.8125 0.15625 C 7.707031 0.144531 7.601562 0.140625 7.5 0.140625 C 6.71875 0.140625 6.125 0.304688 5.71875 0.640625 C 5.3125 0.972656 5.109375 1.4375 5.109375 2.03125 C 5.109375 2.8125 5.484375 3.410156 6.234375 3.828125 C 6.984375 4.253906 8.097656 4.46875 9.578125 4.46875 Z M 9.578125 4.46875 "/></g></g></g><g fill="#ffffff" fill-opacity="1"><g transform="translate(603.156453, 499.679755)"><g/></g></g><g fill="#ffffff" fill-opacity="1"><g transform="translate(615.187557, 499.679755)"><g><path d="M 18.984375 -15.265625 L 18.984375 -24.484375 L 23.8125 -24.484375 L 23.8125 0 L 18.984375 0 L 18.984375 -11.15625 L 8.015625 -11.15625 L 8.015625 0 L 3.1875 0 L 3.1875 -24.484375 L 8.015625 -24.484375 L 8.015625 -15.265625 Z M 18.984375 -15.265625 "/></g></g></g><g fill="#ffffff" fill-opacity="1"><g transform="translate(646.137919, 499.679755)"><g><path d="M 8.453125 0.359375 C 6.378906 0.359375 4.847656 -0.207031 3.859375 -1.34375 C 2.867188 -2.476562 2.375 -4.109375 2.375 -6.234375 L 2.375 -18.46875 L 7.015625 -18.46875 L 7.015625 -6.8125 C 7.015625 -5.6875 7.253906 -4.863281 7.734375 -4.34375 C 8.222656 -3.820312 8.976562 -3.5625 10 -3.5625 C 11.28125 -3.5625 12.273438 -3.984375 12.984375 -4.828125 C 13.703125 -5.671875 14.0625 -7 14.0625 -8.8125 L 14.0625 -18.46875 L 18.703125 -18.46875 L 18.703125 0 L 14.25 0 L 14.25 -2.71875 L 13.90625 -2.796875 C 13.3125 -1.734375 12.585938 -0.941406 11.734375 -0.421875 C 10.878906 0.0976562 9.785156 0.359375 8.453125 0.359375 Z M 8.453125 0.359375 "/></g></g></g><g fill="#ffffff" fill-opacity="1"><g transform="translate(671.445978, 499.679755)"><g><path d="M 12.90625 0.359375 C 10.550781 0.359375 8.800781 -0.523438 7.65625 -2.296875 L 7.296875 -2.234375 L 7.296875 0 L 2.65625 0 L 2.65625 -25.890625 L 7.296875 -25.890625 L 7.296875 -16.296875 L 7.65625 -16.234375 C 8.289062 -17.109375 9.039062 -17.757812 9.90625 -18.1875 C 10.769531 -18.613281 11.804688 -18.828125 13.015625 -18.828125 C 14.503906 -18.828125 15.804688 -18.472656 16.921875 -17.765625 C 18.046875 -17.066406 18.921875 -16 19.546875 -14.5625 C 20.171875 -13.125 20.484375 -11.347656 20.484375 -9.234375 C 20.484375 -7.128906 20.15625 -5.359375 19.5 -3.921875 C 18.851562 -2.492188 17.960938 -1.421875 16.828125 -0.703125 C 15.691406 0.00390625 14.382812 0.359375 12.90625 0.359375 Z M 11.5 -3.578125 C 12.863281 -3.578125 13.898438 -4.03125 14.609375 -4.9375 C 15.328125 -5.851562 15.6875 -7.285156 15.6875 -9.234375 C 15.6875 -11.179688 15.328125 -12.609375 14.609375 -13.515625 C 13.898438 -14.429688 12.863281 -14.890625 11.5 -14.890625 C 10.195312 -14.890625 9.160156 -14.421875 8.390625 -13.484375 C 7.628906 -12.546875 7.25 -11.128906 7.25 -9.234375 C 7.25 -7.328125 7.628906 -5.90625 8.390625 -4.96875 C 9.160156 -4.039062 10.195312 -3.578125 11.5 -3.578125 Z M 11.5 -3.578125 "/></g></g></g></svg>